PathFileType	4	(X/Y/Z)	C:\Users\86182\Documents\cortex\Trimmed_M3_H9.trc
DataRate	CameraRate	NumFrames	NumMarkers	Units	OrigDataRate	OrigDataStartFrame	OrigNumFrames
100.00	100.00	       158	2	mm	100.00	1	       901
Frame#	Time	gripper			box			
		X1	Y1	Z1	X2	Y2	Z2	

1	0.000	268.31894	172.36494	192.58365	269.41379	169.50710	56.98857	
2	0.010	268.31851	172.36577	192.58411	269.41428	169.50716	56.98882	
3	0.020	268.31781	172.36653	192.58420	269.41495	169.50725	56.98912	
4	0.030	268.31708	172.36708	192.58411	269.41562	169.50725	56.98959	
5	0.040	268.31659	172.36723	192.58392	269.41644	169.50710	56.99039	
6	0.050	268.31653	172.36688	192.58371	269.41791	169.50685	56.99158	
7	0.060	268.31689	172.36607	192.58365	269.42029	169.50664	56.99305	
8	0.070	268.31754	172.36511	192.58385	269.42343	169.50656	56.99453	
9	0.080	268.31818	172.36438	192.58424	269.42712	169.50668	56.99583	
10	0.090	268.31836	172.36407	192.58449	269.43109	169.50700	56.99682	
11	0.100	268.31775	172.36424	192.58417	269.43488	169.50751	56.99738	
12	0.110	268.31622	172.36485	192.58296	269.43793	169.50810	56.99744	
13	0.120	268.31396	172.36578	192.58095	269.43954	169.50867	56.99695	
14	0.130	268.31134	172.36697	192.57861	269.43924	169.50911	56.99594	
15	0.140	268.30887	172.36829	192.57661	269.43701	169.50934	56.99459	
16	0.150	268.30688	172.36946	192.57520	269.43353	169.50931	56.99320	
17	0.160	268.30557	172.37015	192.57420	269.42972	169.50909	56.99205	
18	0.170	268.30493	172.37007	192.57329	269.42590	169.50876	56.99115	
19	0.180	268.30490	172.36922	192.57227	269.42206	169.50830	56.99046	
20	0.190	268.30542	172.36786	192.57120	269.41849	169.50784	56.98992	
21	0.200	268.30618	172.36636	192.57013	269.41586	169.50751	56.98950	
22	0.210	268.30692	172.36504	192.56906	269.41458	169.50739	56.98921	
23	0.220	268.30737	172.36414	192.56821	269.41461	169.50742	56.98916	
24	0.230	268.30777	172.36374	192.56801	269.41550	169.50745	56.98947	
25	0.240	268.30832	172.36385	192.56876	269.41681	169.50734	56.99023	
26	0.250	268.30923	172.36423	192.57048	269.41833	169.50708	56.99138	
27	0.260	268.31046	172.36467	192.57294	269.41995	169.50673	56.99272	
28	0.270	268.31171	172.36519	192.57576	269.42136	169.50636	56.99404	
29	0.280	268.31271	172.36586	192.57870	269.42221	169.50598	56.99513	
30	0.290	268.31342	172.36659	192.58151	269.42261	169.50568	56.99591	
31	0.300	268.31387	172.36716	192.58389	269.42273	169.50548	56.99637	
32	0.310	268.31415	172.36737	192.58545	269.42270	169.50542	56.99647	
33	0.320	268.31430	172.36726	192.58594	269.42270	169.50552	56.99626	
34	0.330	268.31430	172.36691	192.58530	269.42316	169.50586	56.99580	
35	0.340	268.31421	172.36642	192.58388	269.42456	169.50647	56.99515	
36	0.350	268.31412	172.36589	192.58226	269.42676	169.50734	56.99433	
37	0.360	268.31418	172.36540	192.58093	269.42868	169.50826	56.99330	
38	0.370	268.31436	172.36501	192.58012	269.42896	169.50894	56.99207	
39	0.380	268.31461	172.36467	192.57977	269.42706	169.50919	56.99079	
40	0.390	268.31485	172.36436	192.57962	269.42371	169.50900	56.98978	
41	0.400	268.31512	172.36404	192.57945	269.42007	169.50845	56.98936	
42	0.410	268.31546	172.36372	192.57918	269.41714	169.50766	56.98972	
43	0.420	268.31577	172.36351	192.57889	269.41522	169.50682	56.99062	
44	0.430	268.31595	172.36351	192.57858	269.41434	169.50609	56.99169	
45	0.440	268.31577	172.36374	192.57819	269.41434	169.50560	56.99267	
46	0.450	268.31525	172.36420	192.57768	269.41537	169.50543	56.99342	
47	0.460	268.31442	172.36488	192.57729	269.41739	169.50557	56.99398	
48	0.470	268.31357	172.36577	192.57730	269.41989	169.50583	56.99448	
49	0.480	268.31290	172.36668	192.57776	269.42209	169.50601	56.99503	
50	0.490	268.31256	172.36732	192.57852	269.42346	169.50601	56.99560	
51	0.500	268.31268	172.36746	192.57938	269.42404	169.50586	56.99612	
52	0.510	268.31317	172.36711	192.58011	269.42426	169.50566	56.99663	
53	0.520	268.31375	172.36653	192.58043	269.42459	169.50545	56.99718	
54	0.530	268.31403	172.36603	192.58018	269.42532	169.50531	56.99776	
55	0.540	268.31396	172.36583	192.57945	269.42645	169.50531	56.99822	
56	0.550	268.31357	172.36594	192.57849	269.42776	169.50552	56.99833	
57	0.560	268.31308	172.36629	192.57767	269.42841	169.50594	56.99776	
58	0.570	268.31274	172.36673	192.57735	269.42743	169.50648	56.99628	
59	0.580	268.31287	172.36713	192.57776	269.42474	169.50710	56.99400	
60	0.590	268.31348	172.36734	192.57880	269.42114	169.50768	56.99135	
61	0.600	268.31442	172.36732	192.58017	269.41772	169.50821	56.98889	
62	0.610	268.31543	172.36719	192.58159	269.41528	169.50864	56.98705	
63	0.620	268.31622	172.36713	192.58289	269.41403	169.50893	56.98596	
64	0.630	268.31662	172.36731	192.58392	269.41382	169.50909	56.98553	
65	0.640	268.31650	172.36775	192.58458	269.41443	169.50919	56.98559	
66	0.650	268.31601	172.36839	192.58490	269.41568	169.50926	56.98595	
67	0.660	268.31534	172.36911	192.58501	269.41718	169.50929	56.98650	
68	0.670	268.31467	172.36967	192.58499	269.41821	169.50914	56.98721	
69	0.680	268.31427	172.36993	192.58498	269.41827	169.50870	56.98812	
70	0.690	268.31427	172.36981	192.58511	269.41748	169.50797	56.98925	
71	0.700	268.31464	172.36945	192.58554	269.41614	169.50713	56.99037	
72	0.710	268.31534	172.36899	192.58626	269.41443	169.50633	56.99123	
73	0.720	268.31631	172.36848	192.58713	269.41248	169.50566	56.99181	
74	0.730	268.31757	172.36780	192.58783	269.41061	169.50504	56.99231	
75	0.740	268.31882	172.36696	192.58818	269.40918	169.50446	56.99292	
76	0.750	268.31979	172.36613	192.58815	269.40839	169.50395	56.99365	
77	0.760	268.32028	172.36559	192.58777	269.40829	169.50360	56.99439	
78	0.770	268.32019	172.36548	192.58720	269.40887	169.50342	56.99503	
79	0.780	268.31964	172.36586	192.58675	269.40991	169.50343	56.99545	
80	0.790	268.31879	172.36671	192.58655	269.41122	169.50362	56.99556	
81	0.800	268.31766	172.36780	192.58641	269.41275	169.50397	56.99529	
82	0.810	268.31625	172.36884	192.58601	269.41440	169.50444	56.99460	
83	0.820	268.31458	172.36961	192.58527	269.41595	169.50499	56.99345	
84	0.830	268.31271	172.37013	192.58430	269.41718	169.50551	56.99188	
85	0.840	268.31082	172.37038	192.58334	269.41791	169.50592	56.99007	
86	0.850	268.30917	172.37030	192.58232	269.41815	169.50618	56.98822	
87	0.860	268.30801	172.36978	192.58086	269.41821	169.50641	56.98654	
88	0.870	268.30746	172.36871	192.57849	269.41843	169.50677	56.98528	
89	0.880	268.30743	172.36711	192.57510	269.41907	169.50737	56.98463	
90	0.890	268.30762	172.36526	192.57094	269.41977	169.50809	56.98450	
91	0.900	268.30768	172.36362	192.56667	269.42010	169.50870	56.98479	
92	0.910	268.30756	172.36267	192.56329	269.42001	169.50909	56.98545	
93	0.920	268.30725	172.36290	192.56201	269.41971	169.50925	56.98663	
94	0.930	268.30673	172.36459	192.56381	269.41901	169.50906	56.98835	
95	0.940	268.30566	172.36784	192.56941	269.41727	169.50833	56.99050	
96	0.950	268.30368	172.37274	192.57930	269.41376	169.50676	56.99289	
97	0.960	268.30026	172.37932	192.59348	269.40793	169.50401	56.99521	
98	0.970	268.29489	172.38750	192.61125	269.39990	169.49991	56.99701	
99	0.980	268.28790	172.39658	192.63133	269.39035	169.49431	56.99773	
100	0.990	268.28061	172.40520	192.65256	269.38028	169.48717	56.99696	
101	1.000	268.27475	172.41174	192.67409	269.37051	169.47856	56.99445	
102	1.010	268.27142	172.41490	192.69504	269.36176	169.46901	56.98988	
103	1.020	268.27042	172.41408	192.71448	269.35443	169.45949	56.98277	
104	1.030	268.27017	172.40941	192.73242	269.34848	169.45085	56.97311	
105	1.040	268.26822	172.40173	192.75034	269.34338	169.44348	56.96191	
106	1.050	268.26190	172.39198	192.77121	269.33829	169.43732	56.95147	
107	1.060	268.24976	172.38054	192.79936	269.33218	169.43207	56.94549	
108	1.070	268.23215	172.36711	192.83957	269.32394	169.42726	56.94918	
109	1.080	268.21124	172.35126	192.89638	269.31247	169.42229	56.96898	
110	1.090	268.18982	172.33293	192.97397	269.29675	169.41656	57.01221	
111	1.100	268.17062	172.31265	193.07646	269.27588	169.40985	57.08636	
112	1.110	268.15646	172.29163	193.20789	269.24908	169.40257	57.19771	
113	1.120	268.14908	172.27223	193.37177	269.21661	169.39615	57.34995	
114	1.130	268.14816	172.25764	193.57092	269.18069	169.39253	57.54356	
115	1.140	268.15240	172.24992	193.80707	269.14703	169.39290	57.77606	
116	1.150	268.16104	172.24884	194.07971	269.12405	169.39632	58.04367	
117	1.160	268.17300	172.25307	194.38585	269.11823	169.40047	58.34327	
118	1.170	268.18619	172.26109	194.72134	269.13013	169.40396	58.67271	
119	1.180	268.19824	172.27130	195.08270	269.15378	169.40805	59.02930	
120	1.190	268.20743	172.28244	195.46700	269.18039	169.41510	59.40871	
121	1.200	268.21292	172.29457	195.87021	269.20352	169.42598	59.80523	
122	1.210	268.21426	172.30922	196.28676	269.22217	169.43982	60.21319	
123	1.220	268.21222	172.32832	196.71164	269.23895	169.45543	60.62948	
124	1.230	268.20859	172.35260	197.14221	269.25528	169.47203	61.05460	
125	1.240	268.20508	172.38069	197.57744	269.26892	169.48927	61.48932	
126	1.250	268.20270	172.40921	198.01656	269.27664	169.50746	61.93079	
127	1.260	268.20288	172.43443	198.45898	269.27780	169.52780	62.37341	
128	1.270	268.20749	172.45483	198.90433	269.27383	169.55197	62.81364	
129	1.280	268.21729	172.47142	199.35164	269.26501	169.58051	63.25262	
130	1.290	268.23120	172.48506	199.79907	269.25049	169.61101	63.69347	
131	1.300	268.24750	172.49440	200.24411	269.23145	169.63892	64.13588	
132	1.310	268.26471	172.49765	200.68378	269.21329	169.65982	64.57400	
133	1.320	268.28131	172.49541	201.11581	269.20535	169.67041	65.00028	
134	1.330	268.29642	172.49039	201.54024	269.21854	169.66733	65.40974	
135	1.340	268.31073	172.48466	201.95874	269.26410	169.64549	65.79831	
136	1.350	268.32611	172.47798	202.37253	269.35547	169.59747	66.15916	
137	1.360	268.34442	172.46866	202.78261	269.50705	169.51558	66.48263	
138	1.370	268.36649	172.45610	203.19196	269.72656	169.39647	66.76173	
139	1.380	268.39221	172.44214	203.60475	270.00443	169.24579	67.00167	
140	1.390	268.42020	172.42976	204.02371	270.30505	169.08255	67.22843	
141	1.400	268.44815	172.42023	204.44896	270.55734	168.94481	67.49377	
142	1.410	268.47406	172.41266	204.87883	270.66879	168.88350	67.86213	
143	1.420	268.49658	172.40666	205.31169	270.59256	168.92645	68.36383	
144	1.430	268.51431	172.40366	205.74745	270.37408	169.05122	68.96514	
145	1.440	268.52560	172.40492	206.18701	270.10269	169.21013	69.60297	
146	1.450	268.52985	172.40945	206.63011	269.84717	169.36615	70.22916	
147	1.460	268.52823	172.41518	207.07443	269.64539	169.49916	70.81656	
148	1.470	268.52298	172.42171	207.51732	269.51434	169.59920	71.35066	
149	1.480	268.51465	172.43123	207.95723	269.45651	169.66173	71.82523	
150	1.490	268.50156	172.44614	208.39267	269.46753	169.68390	72.23888	
151	1.500	268.48267	172.46611	208.82143	269.54446	169.66216	72.59213	
152	1.510	268.45944	172.48764	209.24274	269.68521	169.59270	72.88681	
153	1.520	268.43414	172.50632	209.65868	269.87781	169.47456	73.13055	
154	1.530	268.40808	172.51970	210.07243	270.08731	169.31516	73.34425	
155	1.540	268.38141	172.52802	210.48663	270.24545	169.13795	73.56813	
156	1.550	268.35318	172.53212	210.90312	270.26639	168.97836	73.85349	
157	1.560	268.32196	172.53143	211.32269	270.11166	168.85420	74.22601	
158	1.570	268.28745	172.52406	211.74550	269.83417	168.74959	74.66266	
